<?xml version="1.0" encoding="utf-8"?>
<!DOCTYPE svg PUBLIC "-//W3C//DTD SVG 1.1//EN" "http://www.w3.org/Graphics/SVG/1.1/DTD/svg11.dtd">
<svg version="1.1" id="Layer_1" xmlns="http://www.w3.org/2000/svg" xmlns:xlink="http://www.w3.org/1999/xlink" x="0px" y="0px"
	 width="215px" height="40px" viewBox="13 938 1186.3 216.5" style="enable-background:new 13 938 1186.3 216.5;" xml:space="preserve">
<g>
	<path style="fill:#00CEBB;" d="M90.1,1045.6c0-4.8-1.8-8.4-5.4-11.4c-3.6-2.4-9.6-5.4-18-8.4s-15.6-5.4-21.1-8.4
		c-17.4-8.4-26.5-20.5-26.5-36.1c0-7.8,2.4-14.4,6.6-19.9c4.2-6,10.8-10.2,18.6-13.2s17.4-4.8,27.1-4.8s18.6,1.8,26.5,5.4
		c7.8,3.6,13.8,8.4,18,15c4.2,6.6,6.6,13.8,6.6,22.3h-33c0-5.4-1.8-9.6-5.4-13.2c-3.6-3.6-7.8-4.8-13.8-4.8s-10.8,1.2-13.8,3.6
		c-3.6,2.4-5.4,6-5.4,9.6c0,3.6,1.8,6.6,5.4,9.6c3.6,3,10.2,6,19.9,9c9.7,3,17.4,6,23.5,9.6c15,8.4,22.3,20.5,22.3,35.5
		c0,12-4.2,21.1-13.2,28.3c-9,6.6-21.7,10.2-37.3,10.2c-10.8,0-21.1-1.8-30.1-6c-9-4.2-15.6-9.6-20.5-16.2c-4.8-6.6-6.6-15-6.6-24.1
		h33.1c0,7.2,1.8,12.6,5.4,16.2c3.6,3.6,10.2,5.4,18.6,5.4c5.4,0,9.6-1.2,12.6-3.6C88.9,1053.5,90.1,1049.9,90.1,1045.6z"/>
	<path style="fill:#00CEBB;" d="M224.9,1024h-51.7v32.5h61.4v25.8H140V945.2h94.4v25.3H173v28.8h51.7L224.9,1024L224.9,1024z"/>
	<path style="fill:#00CEBB;" d="M298.3,1033.6h-18v48.1h-33.1V945.2h53.5c16.2,0,28.9,3.6,37.9,10.8c9,7.2,13.8,17.4,13.8,30.7
		c0,9.6-1.8,17.4-6,23.5c-3.6,6-9.6,11.4-18,15l28.3,55.3v1.8h-34.3L298.3,1033.6z M280.8,1008.3h21.1c6,0,10.8-1.8,13.8-4.8
		s4.8-7.8,4.8-13.8c0-6-1.8-10.2-4.8-13.8c-3-3.6-7.8-4.8-13.8-4.8h-21.1V1008.3z"/>
	<path style="fill:#00CEBB;" d="M424.6,1045l27.1-99.3h36.7l-45.8,136.6h-36.1l-45.7-137.2h36.7L424.6,1045z"/>
	<path style="fill:#00CEBB;" d="M533.5,1082.3h-33.1V945.2h33.1V1082.3z"/>
	<path style="fill:#00CEBB;" d="M667,1036c-0.6,9.6-3,18-7.8,25.3c-4.8,7.2-11.4,13.2-19.9,16.8c-8.4,4.2-18,6-28.9,6
		c-18,0-31.9-6-42.7-17.4c-10.2-11.4-15.6-28.3-15.6-49.3v-7.2c0-13.2,2.4-25.3,7.2-34.9c4.8-10.2,11.4-18,19.9-23.5
		c8.5-5.5,18.6-8.4,30.7-8.4c16.8,0,30.1,4.2,39.7,13.2c10.2,9,15.6,21.1,17.4,36.1h-33c0-8.4-2.4-14.4-6-18
		c-4.2-3.6-10.2-5.4-18-5.4c-8.4,0-14.4,3-18,9s-6,15.6-6,29.5v9.6c0,14.4,1.8,25.3,5.4,31.3c3.6,6,10.2,9.6,18.6,9.6
		c7.8,0,13.2-1.8,17.4-5.4s6-9,6.6-16.8L667,1036L667,1036z"/>
	<path style="fill:#00CEBB;" d="M767.5,1024h-51.7v32.5h61.4v25.8h-94.4V945.2h94.4v25.3h-61.4v28.8h51.7V1024L767.5,1024z"/>
	<path style="fill:#2271BD;" d="M797,1082.3V945.2h38.5c11.4,0,21.1,2.4,30.1,7.8c9,4.8,15.6,12.6,21.1,21.7
		c4.8,9.6,7.2,20.5,7.2,32.5v12.6c0,12-2.4,22.9-7.2,32.5c-4.8,9.6-12,16.8-21.1,21.7c-9,5.4-19.3,7.8-30.7,7.8H797V1082.3z
		 M808.4,955.4v117.3h25.9c14.4,0,25.9-4.8,34.9-14.4c8.4-9.6,13.2-22.3,13.2-38.5v-12c0-15.6-4.2-28.3-12.6-37.9
		c-8.4-9.6-19.9-14.4-33.7-14.4L808.4,955.4L808.4,955.4z"/>
	<path style="fill:#2271BD;" d="M959.4,1084.1c-8.4,0-16.2-2.4-23.5-6.6c-7.2-4.2-12.6-10.2-16.2-18c-3.6-7.8-6-16.2-6-25.9v-4.2
		c0-9.6,1.8-18.6,5.4-26.5c3.6-7.8,9-13.8,15.6-18.6c6.6-4.2,13.8-6.6,22.3-6.6c12,0,22.3,4.2,29.5,12.6
		c7.2,8.4,10.8,19.9,10.8,34.3v6h-72.2v3.6c0,11.4,3,21.1,9.6,28.9c6.6,7.8,15,11.4,24.7,11.4c6,0,11.4-1.2,15.6-3
		c4.2-1.8,9-5.4,12.6-10.2l7.2,5.4C987.1,1078.1,975.7,1084.1,959.4,1084.1z M957.6,988.5c-8.4,0-15.6,3-21.1,9
		c-6,6-9,14.4-10.8,25.3h60.8v-1.2c-0.6-9.6-3-17.4-8.4-24.1C973.2,991.5,966,988.5,957.6,988.5z"/>
	<path style="fill:#2271BD;" d="M1080.3,1056.5c0-5.4-2.4-10.2-6.6-13.2c-4.2-3.6-11.4-6-20.5-7.8c-9-1.8-16.2-4.2-21.1-6.6
		c-4.9-2.4-8.4-5.4-10.8-9c-2.4-3.6-3.6-7.8-3.6-13.2c0-7.8,3.6-14.4,10.2-19.9c6.6-5.4,15-7.8,25.9-7.8c11.4,0,20.5,3,27.1,8.4
		c6.6,5.4,10.2,12.6,10.2,21.7h-11.4c0-6-2.4-10.8-7.2-15c-4.8-4.2-11.4-6-18.6-6c-7.2,0-13.2,1.8-18,4.8s-6.6,7.8-6.6,12.6
		c0,4.8,1.8,9,5.4,12c3.6,3,10.2,5.4,20.5,7.8c9.6,2.4,17.4,4.8,22.3,7.2c4.8,2.4,8.4,6,10.8,9.6c2.4,3.6,3.6,8.4,3.6,13.2
		c0,8.4-3.6,15.6-10.2,20.5c-6.6,5.4-16.2,7.8-27.1,7.8c-12,0-21.7-3-28.9-8.4c-7.2-6-10.8-13.2-10.8-21.7h11.4
		c0.6,6.6,3,11.4,8.4,15.6c4.8,3.6,12,5.4,20.5,5.4c7.8,0,14.4-1.8,19.3-5.4C1077.9,1066.1,1080.3,1061.3,1080.3,1056.5z"/>
	<path style="fill:#2271BD;" d="M1141.1,1031.2l-12.6,12.6v38.5H1117V938h11.4v92l10.8-11.4l39.1-38.5h14.4l-43.3,42.7l46.9,59
		h-13.2L1141.1,1031.2z"/>
</g>
<g>
	<polygon style="fill:#969696;" points="10.1,1110 22.1,1110 22.1,1141.3 26.9,1141.3 26.9,1110 39.6,1110 39.6,1105.8 10.1,1105.8 
			"/>
	<path style="fill:#969696;" d="M56.4,1105.2c-3,0-5.4,0.6-7.8,2.4c-2.4,1.8-4.2,3.6-5.4,6.6s-1.8,6-1.8,9v1.2c0,3,0.6,6,1.8,9
		c1.2,2.4,3,4.8,6,6c2.4,1.2,5.4,2.4,8.4,2.4c5.4,0,9.6-2.4,12.6-6.6l0.6-0.6l-3.6-2.4l-0.6,0.6c-1.2,1.8-2.4,2.4-4.2,3.6
		c-1.2,0.6-3,1.2-5.4,1.2c-3,0-6-1.2-7.8-3.6c-2.4-2.4-3-5.4-3-9.6l0,0h24.7v-3c0-4.8-1.2-9-3.6-12
		C64.2,1107,60.6,1105.2,56.4,1105.2z M46.2,1120.2c0.6-3,1.8-5.4,3.6-7.2s4.2-3,6.6-3c3,0,4.8,1.2,6.6,3c1.8,1.8,2.4,4.2,2.4,7.2
		H46.2z"/>
	<polygon style="fill:#969696;" points="104.5,1105.8 98.5,1105.8 89.5,1119 81.1,1106.4 80.5,1105.8 74.5,1105.8 86.5,1123.2 
		74.5,1141.3 79.9,1141.3 89.5,1127.5 99.1,1141.3 105.2,1141.3 92.5,1123.2 	"/>
	<polygon style="fill:#969696;" points="133.4,1121.4 116.6,1121.4 116.6,1105.8 111.2,1105.8 111.2,1141.3 116.6,1141.3 
		116.6,1125.7 133.4,1125.7 133.4,1141.3 138.8,1141.3 138.8,1105.8 133.4,1105.8 	"/>
	<polygon style="fill:#969696;" points="153.9,1132.9 153.9,1105.8 149.1,1105.8 149.1,1141.3 153.9,1141.3 171.3,1114.8 
		171.3,1141.3 176.1,1141.3 176.1,1105.8 171.9,1105.8 	"/>
	<path style="fill:#969696;" d="M207.4,1122.6c-3,1.2-5.4,1.8-8.4,1.8c-3,0-5.4-0.6-6.6-1.8c-1.8-1.8-2.4-4.2-2.4-7.2v-9.6h-4.8v9.6
		c0,4.2,1.2,7.8,3.6,9.6c2.4,2.4,5.4,3,10.2,3c2.4,0,5.4-0.6,8.4-1.2v14.5h4.8v-35.5h-4.8V1122.6z"/>
	<path style="fill:#969696;" d="M235.7,1105.2c-3,0-5.4,0.6-7.8,2.4c-2.4,1.8-4.2,3.6-5.4,6.6s-1.8,6-1.8,9v1.2c0,3,0.6,6,1.8,9
		c1.2,2.4,3,4.8,6,6c2.4,1.2,5.4,2.4,8.4,2.4c5.4,0,9.6-2.4,12.6-6.6l0.6-0.6l-3.6-2.4l-0.6,0.6c-1.2,1.8-2.4,2.4-4.2,3.6
		c-1.2,0.6-3,1.2-5.4,1.2c-3,0-6-1.2-7.8-3.6c-2.4-2.4-3-5.4-3-9.6l0,0h24.7v-3c0-4.8-1.2-9-3.6-12
		C243.5,1107,239.9,1105.2,235.7,1105.2z M225.5,1120.2c0.6-3,1.8-5.4,3.6-7.2s4.2-3,6.6-3c3,0,4.8,1.2,6.6,3s2.4,4.2,2.4,7.2H225.5
		z"/>
	<path style="fill:#969696;" d="M262.8,1113c1.8-2.4,4.2-3.6,7.2-3.6c2.4,0,4.8,0.6,6,2.4c1.8,1.8,2.4,3.6,3,6v0.6h4.8v-0.6
		c0-3.6-1.8-7.2-4.2-9c-2.4-2.4-6-3.6-9.6-3.6c-3,0-6,0.6-7.8,2.4c-2.4,1.2-4.2,3.6-5.4,6c-1.2,2.4-1.8,6-1.8,9v1.2
		c0,5.4,1.2,9.6,4.2,13.2c3,3,6.6,4.8,11.4,4.8c2.4,0,4.8-0.6,6.6-1.8c1.8-1.2,3.6-2.4,4.8-4.2c1.2-1.8,1.8-3.6,1.8-6v-0.5H279v0.6
		c0,2.4-1.2,4.2-2.4,5.4c-1.2,1.2-3.6,1.8-6,1.8c-3,0-6-1.2-7.8-3.6c-1.8-2.4-3-5.4-3-9.6v-1.2C260.4,1119,261,1115.4,262.8,1113z"
		/>
	<polygon style="fill:#969696;" points="320.5,1105.8 314.5,1105.8 301.9,1120.8 297.1,1120.8 297.1,1105.8 292.2,1105.8 
		292.2,1141.3 297.1,1141.3 297.1,1125.7 301.9,1125.7 315.1,1141.3 315.7,1141.3 322.3,1141.3 306.1,1123.2 	"/>
	<path style="fill:#969696;" d="M353,1132.9v-16.2c0-3.6-1.2-6.6-3.6-8.4c-2.4-1.8-5.4-3-9.6-3c-3.6,0-7.2,1.2-9.6,3
		c-2.4,2.4-4.2,4.8-4.2,7.8v0.6h4.8v-0.6c0-1.8,0.6-3,2.4-4.2c1.8-1.2,3.6-1.8,6-1.8c3,0,4.8,0.6,6,1.8c1.2,1.2,1.8,3,1.8,5.4v3h-6
		c-4.8,0-9,1.2-12,3s-4.2,4.8-4.2,8.4c0,3,1.2,5.4,3,7.2c2.4,1.8,4.8,3,8.4,3c2.4,0,4.8-0.6,6.6-1.2c1.8-0.6,3-1.8,4.2-3
		c0,1.2,0.6,2.4,0.6,3.6v0.6h4.8v-1.2l0,0C353,1138.9,353,1136.5,353,1132.9z M347.6,1124.5v6.6c-0.6,1.8-2.4,3.6-4.2,4.8
		s-4.2,1.8-6.6,1.8s-3.6-0.6-5.4-1.8c-1.2-1.2-1.8-2.4-1.8-4.2c0-2.4,1.2-3.6,3-4.8c1.8-1.2,4.8-1.8,8.4-1.8h6.6V1124.5z"/>
	<path style="fill:#969696;" d="M365.6,1108.8c-2.4,1.8-3.6,4.8-3.6,7.8c0,2.4,0.6,4.8,1.8,6.6c1.2,1.8,3,3,4.8,3.6l-9,14.4h5.4
		l8.4-13.8h9.6v13.9h4.8v-35.5H374C371.1,1105.8,368,1107,365.6,1108.8z M367.4,1116.6c0-1.8,0.6-3.6,1.8-4.8c1.2-1.2,3.6-1.8,6-1.8
		h9v12.6H374c-2.4,0-3.6-0.6-4.8-1.8C368,1120.2,367.4,1118.4,367.4,1116.6z"/>
	<polygon style="fill:#969696;" points="416.8,1141.3 422.2,1141.3 422.2,1110.6 439,1110.6 439,1141.3 444.4,1141.3 444.4,1105.8 
		416.8,1105.8 	"/>
	<path style="fill:#969696;" d="M468.5,1105.2c-3,0-6,0.6-8.4,2.4c-2.4,1.8-4.2,3.6-5.4,6.6c-1.2,3-1.8,6-1.8,9v0.6
		c0,5.4,1.2,9.6,4.2,13.2c3,3.6,6.6,4.8,11.4,4.8c3,0,6-0.6,8.4-2.4c2.4-1.2,4.2-3.6,5.4-6.6c1.2-3,1.8-6,1.8-9v-0.6
		c0-5.4-1.2-9.6-4.2-13.2C476.9,1107,472.7,1105.2,468.5,1105.2z M479.3,1123.2v0.6c0,4.2-1.2,7.8-3,10.2c-1.8,2.4-4.8,3.6-7.8,3.6
		s-6-1.2-7.8-3.6c-1.8-2.4-3-6-3-9.6v-0.6c0-4.2,1.2-7.8,3-10.2c1.8-2.4,4.8-3.6,7.8-3.6c2.4,0,4.2,0.6,5.4,1.8c1.8,1.2,3,3,3.6,4.8
		C478.7,1118.4,479.3,1120.8,479.3,1123.2z"/>
	<path style="fill:#969696;" d="M517.2,1105.8h-21.7l-0.6,13.8c-0.6,6.6-1.8,12-4.2,15.6l-1.8,1.8h-3v14.4h4.8v-10.1h24.7v10.2h5.4
		v-14.4h-3.6V1105.8z M512.4,1110.6v26.5H495c3-4.2,4.8-10.2,4.8-18l0.6-8.4L512.4,1110.6L512.4,1110.6z"/>
	<path style="fill:#969696;" d="M556.3,1105.8h-21.7l-0.6,13.8c-0.6,6.6-1.8,12-4.2,15.6l-1.8,1.8h-3v14.4h4.8v-10.1h24.7v10.2h4.8
		v-14.4h-3.6v-31.3H556.3L556.3,1105.8z M551.5,1110.6v26.5h-17.4c3-4.2,4.8-10.2,4.8-18l0.6-8.4L551.5,1110.6L551.5,1110.6z"/>
	<path style="fill:#969696;" d="M580.4,1105.2c-3,0-5.4,0.6-7.8,2.4c-2.4,1.8-4.2,3.6-5.4,6.6s-1.8,6-1.8,9v1.2c0,3,0.6,6,1.8,9
		c1.2,2.4,3,4.8,6,6c2.4,1.2,5.4,2.4,8.4,2.4c5.4,0,9.6-2.4,12.6-6.6l0.6-0.6l-3.6-2.4l-0.6,0.6c-1.2,1.8-2.4,2.4-4.2,3.6
		c-1.2,0.6-3,1.2-5.4,1.2c-3,0-6-1.2-7.8-3.6c-2.4-2.4-3-5.4-3-9.6l0,0h24.7v-3c0-4.8-1.2-9-3.6-12
		C588.2,1107,585.2,1105.2,580.4,1105.2z M570.8,1120.2c0.6-3,1.8-5.4,3.6-7.2s4.2-3,6.6-3c3,0,4.8,1.2,6.6,3s2.4,4.2,2.4,7.2H570.8
		z"/>
	<path style="fill:#969696;" d="M617.1,1105.2c-4.2,0-7.8,1.2-10.2,4.2v-3.6h-4.8v48.7h4.8v-16.2c2.4,2.4,6,4.2,10.2,4.2
		s7.8-1.8,10.2-4.8c2.4-3,3.6-7.8,3.6-13.2v-0.6c0-5.4-1.2-10.2-3.6-13.2C624.9,1107,621.3,1105.2,617.1,1105.2z M626.1,1123.2
		c0,4.8-0.6,8.4-2.4,10.8c-1.8,2.4-4.2,3.6-7.2,3.6c-2.4,0-4.2-0.6-5.4-1.2c-1.8-1.2-3-2.4-3.6-4.2V1116c0.6-1.8,1.8-3.6,3.6-4.8
		s3.6-1.8,5.4-1.8c3,0,5.4,1.2,7.2,3.6C624.9,1116,626.1,1119,626.1,1123.2z"/>
	<polygon style="fill:#969696;" points="683.3,1105.8 677.3,1105.8 665.8,1120.8 662.2,1120.8 662.2,1105.8 656.8,1105.8 
		656.8,1120.8 653.2,1120.8 642.4,1106.4 641.8,1105.8 635.8,1105.8 649,1123.2 634,1141.3 640.6,1141.3 653.2,1125.7 656.8,1125.7 
		656.8,1141.3 662.2,1141.3 662.2,1125.7 665.8,1125.7 678.5,1141.3 678.5,1141.3 684.5,1141.3 670,1123.2 	"/>
	<polygon style="fill:#969696;" points="718.8,1105.8 712.2,1105.8 699.5,1120.8 695.3,1120.8 695.3,1105.8 690.5,1105.8 
		690.5,1141.3 695.3,1141.3 695.3,1125.7 700.1,1125.7 713.4,1141.3 714,1141.3 720.6,1141.3 704.3,1123.2 	"/>
	<path style="fill:#969696;" d="M751.3,1132.9v-16.2c0-3.6-1.2-6.6-3.6-8.4c-2.4-1.8-5.4-3-9.6-3c-3.6,0-7.2,1.2-9.6,3
		c-2.4,2.4-4.2,4.8-4.2,7.8v0.6h4.8v-0.6c0-1.8,0.6-3,2.4-4.2c1.8-1.2,3.6-1.8,6-1.8c3,0,4.8,0.6,6,1.8s1.8,3,1.8,5.4v3h-6
		c-4.8,0-9,1.2-12,3s-4.2,4.8-4.2,8.4c0,3,1.2,5.4,3,7.2c2.4,1.8,4.8,3,8.4,3c2.4,0,4.8-0.6,6.6-1.2c1.8-0.6,3-1.8,4.2-3
		c0,1.2,0.6,2.4,0.6,3.6v0.6h4.8v-1.2l0,0C751.3,1138.9,751.3,1136.5,751.3,1132.9z M745.8,1124.5v6.6c-0.6,1.8-2.4,3.6-4.2,4.8
		s-4.2,1.8-6.6,1.8c-2.4,0-3.6-0.6-5.4-1.8c-1.2-1.2-1.8-2.4-1.8-4.2c0-2.4,1.2-3.6,3-4.8c1.8-1.2,4.8-1.8,8.4-1.8h6.6V1124.5z"/>
	<polygon style="fill:#969696;" points="778.3,1141.3 783.7,1141.3 783.7,1110.6 800.6,1110.6 800.6,1141.3 806,1141.3 806,1105.8 
		778.3,1105.8 	"/>
	<path style="fill:#969696;" d="M830.1,1105.2c-3,0-6,0.6-8.4,2.4c-2.4,1.8-4.2,3.6-5.4,6.6s-1.8,6-1.8,9v0.6
		c0,5.4,1.2,9.6,4.2,13.2s6.6,4.8,11.4,4.8c3,0,6-0.6,8.4-2.4c2.4-1.2,4.2-3.6,5.4-6.6s1.8-6,1.8-9v-0.6c0-5.4-1.2-9.6-4.2-13.2
		C838.5,1107,834.3,1105.2,830.1,1105.2z M840.9,1123.2v0.6c0,4.2-1.2,7.8-3,10.2s-4.8,3.6-7.8,3.6s-6-1.2-7.8-3.6
		c-1.8-2.4-3-6-3-9.6v-0.6c0-4.2,1.2-7.2,3-10.2c1.8-2.4,4.8-3.6,7.8-3.6c2.4,0,4.2,0.6,5.4,1.8c1.8,1.2,3,3,3.6,4.8
		C839.7,1118.4,840.9,1120.8,840.9,1123.2z"/>
	<path style="fill:#969696;" d="M857.1,1123.2c0,5.4-1.2,9-1.8,10.8s-2.4,3-4.2,3h-1.8v4.8h1.8c2.4,0,4.2-0.6,6-1.8
		c1.2-1.2,2.4-3,3-6c0.6-2.4,1.2-6,1.2-10.8l0.6-12h12.6v31.3h4.8V1107h-22.9L857.1,1123.2z"/>
	<path style="fill:#969696;" d="M912.5,1119.6c-1.8-1.2-4.2-1.2-7.2-1.2h-9v-12.6h-4.8v35.5h14.4c4.2,0,7.2-1.2,9.6-3
		c2.4-2.4,3.6-4.8,3.6-8.4c0-2.4-0.6-4.2-1.8-6C916.1,1122,914.9,1120.8,912.5,1119.6z M913.7,1129.9c0,2.4-0.6,4.2-2.4,5.4
		c-1.2,1.2-3.6,1.8-6,1.8h-9v-14.4h9.6c2.4,0,4.2,0.6,6,1.8C913.1,1126.3,913.7,1128.1,913.7,1129.9z"/>
	<path style="fill:#969696;" d="M947.4,1123.2c1.2-0.6,2.4-1.8,3-2.4c1.2-1.2,1.8-3,1.8-4.8c0-3-1.2-6-3.6-7.8
		c-2.4-1.8-5.4-2.4-9.6-2.4c-3.6,0-6.6,1.2-9.6,3c-2.4,1.8-3.6,4.8-3.6,7.8v0.6h4.8v-0.6c0-1.8,0.6-3,2.4-4.2c1.8-1.2,3.6-1.8,6-1.8
		c2.4,0,4.8,0.6,6,1.8s1.8,2.4,1.8,4.2c0,3.6-2.4,5.4-7.2,5.4H933v4.2h6c3,0,5.4,0.6,6.6,1.2c1.2,1.2,1.8,2.4,1.8,4.2
		c0,1.8-0.6,3.6-2.4,4.2c-1.8,1.2-3.6,1.8-6.6,1.8c-2.4,0-4.8-0.6-6.6-1.8c-1.8-1.2-2.4-3-2.4-4.8v-0.6h-4.8v0.6c0,3,1.2,6,4.2,7.8
		c2.4,1.8,6,3,9.6,3c4.2,0,7.2-1.2,9.6-3c2.4-1.8,3.6-4.8,3.6-7.8C952.8,1127.5,951,1124.5,947.4,1123.2z"/>
	<path style="fill:#969696;" d="M975.1,1105.2c-3,0-6,0.6-8.4,2.4c-2.4,1.8-4.2,3.6-5.4,6.6s-1.8,6-1.8,9v0.6
		c0,5.4,1.2,9.6,4.2,13.2c3,3.6,6.6,4.8,11.4,4.8c3,0,6-0.6,8.4-2.4c2.4-1.2,4.2-3.6,5.4-6.6s1.8-6,1.8-9v-0.6
		c0-5.4-1.2-9.6-4.2-13.2C983.5,1107,979.9,1105.2,975.1,1105.2z M985.9,1123.2v0.6c0,4.2-1.2,7.8-3,10.2s-4.8,3.6-7.8,3.6
		s-6-1.2-7.8-3.6s-3-6-3-9.6v-0.6c0-4.2,1.2-7.8,3-10.2c1.8-2.4,4.8-3.6,7.8-3.6c2.4,0,4.2,0.6,5.4,1.8c1.8,1.2,3,3,3.6,4.8
		C985.3,1118.4,985.9,1120.8,985.9,1123.2z"/>
	<path style="fill:#969696;" d="M1022,1123.2c1.2-0.6,2.4-1.2,3-2.4c1.2-1.2,1.8-3,1.8-4.8c0-3-1.2-5.4-3.6-7.2
		c-2.4-1.8-6-2.4-10.2-2.4h-13.2v35.5h15c4.2,0,7.2-0.6,9.6-2.4s3.6-4.2,3.6-7.8c0-2.4-0.6-4.2-2.4-5.4
		C1025,1124.5,1023.2,1123.9,1022,1123.2z M1013.6,1121.4h-9v-10.8h8.4c3,0,5.4,0.6,7.2,1.2c1.2,0.6,2.4,2.4,2.4,4.2
		C1021.4,1119.6,1019,1121.4,1013.6,1121.4z M1023.2,1131.1c0,1.8-0.6,3-1.8,4.2s-3.6,1.8-6,1.8h-10.2v-11.4h10.2c3,0,4.8,0.6,6,1.8
		C1022.6,1128.1,1023.2,1129.3,1023.2,1131.1z"/>
	<path style="fill:#969696;" d="M1062.3,1132.9v-16.2c0-3.6-1.2-6.6-3.6-8.4c-2.4-1.8-5.4-3-9.6-3c-3.6,0-7.2,1.2-9.6,3
		c-2.4,2.4-4.2,4.8-4.2,7.8v0.6h4.8v-0.6c0-1.8,0.6-3,2.4-4.2c1.8-1.2,3.6-1.8,6-1.8c3,0,4.8,0.6,6,1.8c1.2,1.2,1.8,3,1.8,5.4v3h-6
		c-4.8,0-9,1.2-12,3s-4.2,4.8-4.2,8.4c0,3,1.2,5.4,3,7.2c2.4,1.8,4.8,3,8.4,3c2.4,0,4.8-0.6,6.6-1.2c1.8-0.6,3-1.8,4.2-3
		c0,1.2,0.6,2.4,0.6,3.6v0.6h4.8v-1.2l0,0C1062.9,1138.9,1062.3,1136.5,1062.3,1132.9z M1057.5,1124.5v6.6c-0.6,1.8-2.4,3.6-4.2,4.8
		c-1.8,1.2-4.2,1.8-6.6,1.8s-3.6-0.6-5.4-1.8c-1.2-1.2-1.8-2.4-1.8-4.2c0-2.4,1.2-3.6,3-4.8c1.8-1.2,4.8-1.8,8.4-1.8h6.6V1124.5z"/>
	<polygon style="fill:#969696;" points="1068.3,1110 1080.3,1110 1080.3,1141.3 1085.1,1141.3 1085.1,1110 1097.8,1110 
		1097.8,1105.8 1068.3,1105.8 	"/>
	<path style="fill:#969696;" d="M1114.6,1105.2c-3,0-5.4,0.6-7.8,2.4c-2.4,1.8-4.2,3.6-5.4,6.6c-1.2,3-1.8,6-1.8,9v1.2
		c0,3,0.6,6,1.8,9c1.2,2.4,3,4.8,6,6c2.4,1.2,5.4,2.4,8.4,2.4c5.4,0,9.6-2.4,12.6-6.6l0.6-0.6l-3.6-2.4l-0.6,0.6
		c-1.2,1.8-2.4,2.4-4.2,3.6c-1.2,0.6-3,1.2-5.4,1.2c-3,0-6-1.2-7.8-3.6c-2.4-2.4-3-5.4-3-9.6l0,0h24.7v-3c0-4.8-1.2-9-3.6-12
		C1122.4,1107,1119.4,1105.2,1114.6,1105.2z M1105,1120.2c0.6-3,1.8-5.4,3.6-7.2s4.2-3,6.6-3c2.4,0,4.8,1.2,6.6,3
		c1.8,1.8,2.4,4.2,2.4,7.2H1105z"/>
	<path style="fill:#969696;" d="M1140.5,1123.2c0,5.4-1.2,9-1.8,10.8c-0.6,1.8-2.4,3-4.2,3h-1.8v4.8h1.8c2.4,0,4.2-0.6,6-1.8
		c1.2-1.2,2.4-3,3-6c0.6-2.4,1.2-6,1.2-10.8l0.6-12h12.6v31.3h4.8V1107h-22.9L1140.5,1123.2z"/>
	<path style="fill:#969696;" d="M1186.8,1105.8c-4.2,0-7.2,1.2-9.6,3c-2.4,1.8-3.6,4.8-3.6,7.8c0,2.4,0.6,4.8,1.8,6.6s3,3,4.8,3.6
		l-9,14.4h5.4l8.4-13.8h9.6v13.9h4.8v-35.5H1186.8z M1186.2,1110h9v12.6H1185c-1.8,0-3.6-0.6-4.8-1.8c-1.2-1.2-1.8-2.4-1.8-4.8
		c0-1.8,0.6-3.6,1.8-4.8C1182,1110.6,1183.8,1110,1186.2,1110z"/>
</g>
</svg>
