<?xml version="1.0" encoding="utf-8"?>
<!DOCTYPE svg PUBLIC "-//W3C//DTD SVG 1.1//EN" "http://www.w3.org/Graphics/SVG/1.1/DTD/svg11.dtd">
<svg version="1.1" id="Layer_1" xmlns="http://www.w3.org/2000/svg" xmlns:xlink="http://www.w3.org/1999/xlink" x="0px" y="0px"
	 width="215px" height="36px" viewBox="0 0 215 36" enable-background="new 0 0 215 36" xml:space="preserve">
<g>
	<path fill="#00CEBB" d="M11.8,16.8c0-0.8-0.3-1.3-0.8-1.8c-0.5-0.4-1.5-0.9-2.8-1.3c-1.3-0.4-2.4-0.9-3.3-1.3
		C2.1,11,0.8,9.2,0.8,6.8c0-1.2,0.3-2.2,1-3.1s1.7-1.6,2.9-2.1C6,1.1,7.4,0.9,8.9,0.9s2.9,0.3,4.1,0.8C14.3,2.2,15.2,3,15.9,4
		c0.7,1,1,2.2,1,3.5h-5.1c0-0.9-0.3-1.5-0.8-2C10.5,5,9.7,4.8,8.8,4.8S7.2,5,6.7,5.4C6.1,5.8,5.9,6.3,5.9,6.9c0,0.5,0.3,1,0.9,1.5
		c0.6,0.4,1.6,0.9,3.1,1.4s2.7,1,3.6,1.5c2.3,1.3,3.5,3.2,3.5,5.5c0,1.9-0.7,3.3-2.1,4.4s-3.3,1.6-5.8,1.6c-1.7,0-3.3-0.3-4.7-0.9
		s-2.5-1.5-3.2-2.5c-0.7-1.1-1.1-2.3-1.1-3.7h5.2c0,1.1,0.3,2,0.9,2.5S7.7,19,9.1,19c0.8,0,1.5-0.2,2-0.5
		C11.5,18,11.8,17.5,11.8,16.8z"/>
	<path fill="#00CEBB" d="M32.8,13.4h-8.1v5.1h9.5v4H19.5V1.2h14.7v4h-9.6v4.5h8.1L32.8,13.4L32.8,13.4z"/>
	<path fill="#00CEBB" d="M44.2,14.9h-2.8v7.5h-5.1V1.2h8.4c2.5,0,4.5,0.6,5.9,1.7s2.1,2.7,2.1,4.8c0,1.5-0.3,2.7-0.9,3.7
		s-1.5,1.8-2.8,2.4l4.4,8.6v0.2H48L44.2,14.9z M41.4,11h3.2c1,0,1.7-0.3,2.2-0.8s0.7-1.2,0.7-2.1s-0.2-1.6-0.7-2.2
		c-0.5-0.5-1.2-0.8-2.2-0.8h-3.2V11z"/>
	<path fill="#00CEBB" d="M63.9,16.7l4.2-15.5h5.7l-7.2,21.3H61L53.9,1.2h5.7L63.9,16.7z"/>
	<path fill="#00CEBB" d="M80.9,22.5h-5.1V1.2h5.1V22.5z"/>
	<path fill="#00CEBB" d="M101.7,15.3c-0.1,1.5-0.5,2.8-1.2,3.9s-1.8,2-3.1,2.6c-1.3,0.6-2.8,0.9-4.5,0.9c-2.8,0-5-0.9-6.6-2.7
		c-1.6-1.8-2.4-4.4-2.4-7.7v-1.1c0-2.1,0.4-3.9,1.1-5.5s1.8-2.8,3.1-3.6s2.9-1.3,4.7-1.3c2.6,0,4.7,0.7,6.2,2
		c1.6,1.4,2.5,3.2,2.7,5.6h-5.1c0-1.3-0.4-2.2-1-2.8S94,4.8,92.8,4.8c-1.3,0-2.2,0.5-2.8,1.4c-0.6,1-0.9,2.5-0.9,4.6v1.5
		c0,2.3,0.3,3.9,0.9,4.9s1.6,1.5,2.9,1.5c1.2,0,2.1-0.3,2.7-0.8c0.6-0.6,1-1.4,1-2.6C96.6,15.3,101.7,15.3,101.7,15.3z"/>
	<path fill="#00CEBB" d="M117.3,13.4h-8.1v5.1h9.5v4H104V1.2h14.7v4h-9.6v4.5h8.1L117.3,13.4L117.3,13.4z"/>
	<path fill="#2271BD" d="M122,22.5V1.2h6c1.7,0,3.3,0.4,4.7,1.2s2.5,1.9,3.2,3.4c0.8,1.5,1.2,3.2,1.2,5.1v2c0,1.9-0.4,3.6-1.2,5.1
		s-1.9,2.6-3.3,3.4s-3,1.2-4.8,1.2H122V22.5z M123.8,2.7V21h4c2.2,0,4-0.7,5.4-2.2s2-3.5,2-6v-1.9c0-2.5-0.7-4.4-2-5.9
		s-3.1-2.2-5.3-2.2L123.8,2.7L123.8,2.7z"/>
	<path fill="#2271BD" d="M147.3,22.8c-1.3,0-2.6-0.3-3.7-1c-1.1-0.7-1.9-1.6-2.5-2.8c-0.6-1.2-0.9-2.5-0.9-4v-0.6
		c0-1.5,0.3-2.9,0.9-4.1c0.6-1.2,1.4-2.2,2.5-2.9s2.2-1,3.4-1c1.9,0,3.4,0.7,4.6,2c1.1,1.3,1.7,3.1,1.7,5.4v1H142V15
		c0,1.8,0.5,3.3,1.5,4.5s2.3,1.8,3.9,1.8c0.9,0,1.8-0.2,2.5-0.5s1.4-0.9,2-1.6L153,20C151.6,21.8,149.7,22.8,147.3,22.8z M147,7.8
		c-1.3,0-2.4,0.5-3.3,1.4c-0.9,1-1.5,2.3-1.6,3.9h9.5V13c0-1.5-0.5-2.8-1.3-3.7C149.4,8.3,148.3,7.8,147,7.8z"/>
	<path fill="#2271BD" d="M166.1,18.5c0-0.9-0.3-1.6-1-2.1s-1.7-0.9-3.2-1.2s-2.5-0.6-3.3-1s-1.4-0.9-1.7-1.4c-0.4-0.6-0.6-1.2-0.6-2
		c0-1.2,0.5-2.3,1.6-3.1c1-0.8,2.4-1.2,4-1.2c1.8,0,3.2,0.4,4.3,1.3s1.6,2,1.6,3.4H166c0-0.9-0.4-1.7-1.2-2.3S163,8,161.9,8
		c-1.2,0-2.1,0.3-2.8,0.8s-1,1.2-1,2s0.3,1.4,0.9,1.8c0.6,0.4,1.6,0.8,3.2,1.2c1.5,0.4,2.7,0.7,3.5,1.2c0.8,0.4,1.3,0.9,1.7,1.5
		c0.4,0.6,0.6,1.3,0.6,2.1c0,1.3-0.5,2.4-1.6,3.2c-1.1,0.8-2.5,1.2-4.2,1.2c-1.8,0-3.3-0.4-4.5-1.3c-1.1-0.9-1.7-2-1.7-3.4h1.8
		c0.1,1,0.5,1.8,1.3,2.4s1.8,0.9,3.2,0.9c1.2,0,2.2-0.3,3-0.8C165.8,20,166.1,19.3,166.1,18.5z"/>
	<path fill="#2271BD" d="M175.6,14.5l-2,1.9v6h-1.8V0h1.8v14.4l1.7-1.8l6.1-6h2.2l-6.7,6.7l7.3,9.2H182L175.6,14.5z"/>
	<path fill="#2271BD" d="M202,15.8c-0.2,2.2-1,4-2.4,5.2s-3.2,1.8-5.4,1.8c-1.6,0-3-0.4-4.2-1.2c-1.2-0.8-2.2-1.9-2.8-3.4
		c-0.7-1.4-1-3.1-1-5v-2.8c0-1.9,0.3-3.6,1-5c0.7-1.5,1.6-2.6,2.9-3.4c1.2-0.8,2.7-1.2,4.3-1.2c2.3,0,4.1,0.6,5.4,1.8
		c1.3,1.2,2.1,2.9,2.3,5.1h-1.8c-0.4-3.6-2.4-5.4-5.9-5.4c-1.9,0-3.5,0.7-4.6,2.2c-1.1,1.4-1.7,3.4-1.7,6v2.6c0,2.5,0.6,4.4,1.7,5.9
		c1.1,1.5,2.6,2.2,4.5,2.2s3.3-0.5,4.3-1.4s1.5-2.3,1.8-4.1h1.6V15.8z"/>
	<path fill="#2271BD" d="M207.9,22.5h-1.8V0h1.8V22.5z"/>
	<path fill="#2271BD" d="M212.6,2.1c0-0.3,0.1-0.6,0.3-0.8s0.5-0.3,0.9-0.3s0.7,0.1,0.9,0.3s0.3,0.5,0.3,0.8s-0.1,0.6-0.3,0.8
		s-0.5,0.3-0.9,0.3s-0.7-0.1-0.9-0.3C212.7,2.7,212.6,2.4,212.6,2.1z M214.6,22.5h-1.8V6.6h1.8V22.5z"/>
</g>
<g>
	<path fill="#959595" d="M2.3,27.2c-0.9,0-1.5,0.5-1.6,0.6v-0.5H0v7.9h0.7v-2.5c0.1,0.1,0.9,0.5,1.8,0.5c0.7,0,1.2-0.3,1.7-0.8
		c0.4-0.5,0.6-1.2,0.6-2.1v-0.1c0-0.9-0.2-1.6-0.6-2.1C3.6,27.5,3,27.2,2.3,27.2z M2.3,32.5c-0.4,0-1.1-0.1-1.6-1v-2.4
		c0.1-0.4,0.3-0.6,0.6-0.8c0.3-0.2,0.6-0.3,1-0.3c0.5,0,0.8,0.2,1.1,0.5c0.3,0.4,0.4,0.9,0.4,1.6C3.8,30.9,3.9,32.5,2.3,32.5z"/>
	<path fill="#959595" d="M7.8,27.2c-1.3,0-2,1-2.2,1.5c-0.2,0.4-0.3,0.9-0.3,1.5c0,0,0,3,2.5,3c1.6,0,2.1-1.2,2.1-1.2l-0.6-0.3
		c0,0-0.6,0.7-1.5,0.7c-1.6,0-1.6-2-1.6-2l3.5,0H10v-0.6c0-0.7-0.2-1.4-0.6-1.8C9,27.5,8.4,27.2,7.8,27.2z M6.2,29.7
		C6.3,29.3,6.3,28,7.8,28c1.5,0,1.5,1.5,1.5,1.7L6.2,29.7z"/>
	<path fill="#959595" d="M13,27.2c-2.3,0-2.4,2-2.4,2.9c0,0,0,3.1,2.4,3.1c2.3,0,2.2-2.2,2.2-2.2h-0.8c0,0,0.2,1.4-1.3,1.4
		c-1.9,0-1.7-2.3-1.7-2.3c0-0.7,0.1-2.1,1.6-2.1c1.7,0,1.4,1.6,1.4,1.6h0.9C15.3,29.6,15.4,27.2,13,27.2z"/>
	<path fill="#959595" d="M18,31.8l-1.7-4.5h-0.9l2.2,5.5c0,0-0.6,1.4-0.7,1.5c-0.1,0.1-0.3,0.2-0.5,0.2c-0.1,0-0.2,0-0.3,0l-0.3-0.1
		v0.8c0,0,0.4,0.2,0.6,0.2c0.7,0,1.2-0.4,1.5-1.1l2.6-7h-0.8L18,31.8z"/>
	<path fill="#959595" d="M23.6,27.2c-0.8,0-1.5,0.5-1.6,0.6v-0.5h-0.9v7.9H22v-2.5c0.1,0.1,0.4,0.5,1.6,0.5c2.5,0,2.3-3,2.3-3
		C25.9,29.3,25.6,27.2,23.6,27.2z M23.6,32.5c-1.2,0-1.4-0.7-1.6-1v-2.4c0.1-0.4,0.5-1.1,1.6-1.1c1.2,0,1.5,1.4,1.5,2.1
		C25.1,30.9,24.9,32.5,23.6,32.5z"/>
	<path fill="#959595" d="M29,27.2c-2.2,0-2.4,2-2.4,2.9c0,0-0.1,3.1,2.4,3.1c2.4,0,2.2-2.2,2.2-2.2h-0.7c0,0,0,1.5-1.4,1.5
		c-2,0-1.7-2.4-1.7-2.4c0-0.7,0.1-2.1,1.6-2.1c1.7,0,1.4,1.6,1.4,1.6h0.9C31.3,29.6,31.6,27.2,29,27.2z"/>
	<polygon fill="#959595" points="34,28.2 36,28.2 36,33.3 36.9,33.3 36.9,28.2 38.6,28.2 38.6,27.3 34,27.3 	"/>
	<path fill="#959595" d="M41.2,27.2c-2.6,0-2.5,3.1-2.5,3.1c0,0.5,0.2,2.9,2.5,2.9c1.7,0,2.1-1.3,2.1-1.3l-0.5-0.2
		c0,0-0.5,0.8-1.6,0.8c-1.7,0-1.7-1.7-1.7-2.1h4v-0.6C43.5,29.1,43.3,27.2,41.2,27.2z M39.6,29.7c0.1-0.4,0.2-1.7,1.6-1.7
		c1.5,0,1.5,1.5,1.5,1.7H39.6z"/>
	<polygon fill="#959595" points="48.7,27.3 47.9,27.3 46.3,29.6 44.6,27.3 43.7,27.3 44,27.7 45.8,30.2 43.6,33.1 44.5,33.1 
		46.2,30.8 47.9,33.1 48.8,33.1 46.7,30.2 	"/>
	<polygon fill="#959595" points="53,29.8 50.2,29.8 50.2,27.3 49.4,27.3 49.4,33.1 50.2,33.1 50.2,30.5 53,30.5 53,33.1 53.7,33.1 
		53.7,27.3 53,27.3 	"/>
	<polygon fill="#959595" points="55.9,31.6 55.9,27.3 55.1,27.3 55.1,33.1 55.8,33.1 58.7,28.9 58.7,33.1 59.4,33.1 59.4,27.3 
		58.8,27.3 	"/>
	<path fill="#959595" d="M64,29.9c0,0.1-0.6,0.3-1.2,0.3c-1.5,0-1.4-1-1.4-1.4v-1.5h-0.9v1.5c0,0.5,0.1,1,0.2,1.3
		c0.2,0.3,0.4,0.9,2,0.9c0.8,0,1.1-0.2,1.3-0.2v2.5h0.9v-6H64V29.9z"/>
	<path fill="#959595" d="M68.3,27.2c-2.5,0-2.5,2.4-2.5,3.2c0,0.8,0.2,2.8,2.5,2.8c1.6,0,2.1-1.2,2.1-1.2l-0.6-0.3
		c0,0-0.4,0.8-1.5,0.8c-1.7,0-1.7-2.1-1.7-2.1l3.9,0C70.5,30.4,70.9,27.2,68.3,27.2z M66.7,29.6c0.1-0.4,0.2-1.6,1.6-1.6
		c1.4,0,1.5,1.4,1.5,1.6H66.7z"/>
	<path fill="#959595" d="M73.4,27.2c-2.6,0-2.4,3.1-2.4,3.1c0,0.9,0.2,2.9,2.4,2.9c2.5,0,2.3-2.2,2.3-2.2H75c0,0,0.1,1.4-1.4,1.4
		c-1.7,0-1.8-1.4-1.8-2.1c0,0-0.2-2.3,1.7-2.3c1.5,0,1.4,1.6,1.4,1.6h0.8C75.7,29.6,75.9,27.2,73.4,27.2z"/>
	<path fill="#959595" d="M84.1,27.2c-2.2,0-2.5,2.2-2.5,3.1s0.3,2.9,2.5,2.9c2.3,0,2.5-2.3,2.5-2.9S86.8,27.2,84.1,27.2z M84.1,32.4
		c-1.6,0-1.7-1.4-1.7-2.1c0-0.7,0-2.3,1.8-2.3c1.6,0,1.7,1.4,1.7,2.3S85.6,32.4,84.1,32.4z"/>
	<polygon fill="#959595" points="81.4,27.3 80.8,27.3 80.8,27.3 80.4,27.3 78.2,29.8 77.6,29.8 77.6,27.3 76.8,27.3 76.8,33.1 
		77.6,33.1 77.6,30.5 78.2,30.5 80.7,33.1 81.7,33.1 78.9,30.2 	"/>
	<polygon fill="#959595" points="88.4,31.6 88.4,27.3 87.6,27.3 87.6,33.1 88.3,33.1 91.2,28.9 91.2,33.1 91.9,33.1 91.9,27.3 
		91.3,27.3 	"/>
	<path fill="#959595" d="M89.8,27.2c1.5,0,1.7-1.8,1.7-1.8h-0.9c0,0,0.2,1-0.8,1c-1.1,0-0.9-1-0.9-1H88C88,25.4,88.1,27.2,89.8,27.2
		z"/>
	<polygon fill="#959595" points="96,33.2 96.9,33.2 96.9,28.1 99.7,28.1 99.7,33.2 100.6,33.2 100.6,27.3 96,27.3 	"/>
	<path fill="#959595" d="M111.3,27.3H108c0.1,3.6-1,4.9-1,4.9h-0.5v2.4h0.8V33h3.7v1.6h0.9v-2.4h-0.6V27.3z M110.5,32.2h-2.6
		c0,0,0.9-2,0.8-4h1.8V32.2z"/>
	<polygon fill="#959595" points="136.5,27.3 135.6,27.3 133.5,29.8 133.1,29.8 133.1,27.3 132.2,27.3 132.2,29.8 131.8,29.8 
		129.7,27.3 128.8,27.3 131.1,30.1 128.3,33.2 129.3,33.2 131.9,30.6 132.3,30.6 132.3,33.2 133.2,33.2 133.2,30.6 133.6,30.6 
		136,33.2 137,33.2 134.3,30.1 	"/>
	<polygon fill="#959595" points="141.8,27.3 140.8,27.3 138.7,29.8 138,29.8 138,27.3 137.1,27.3 137.1,33.2 138,33.2 138,30.6 
		138.6,30.6 141.2,33.2 142.3,33.2 139.3,30.1 	"/>
	<polygon fill="#959595" points="143.2,31.6 143.2,27.3 142.4,27.3 142.4,33.2 143.1,33.2 145.9,28.9 145.9,33.2 146.7,33.2 
		146.7,27.3 146.1,27.3 	"/>
	<polygon fill="#959595" points="150.6,33.2 151.5,33.2 151.5,28.1 154.3,28.1 154.3,33.2 155.2,33.2 155.2,27.3 150.6,27.3 	"/>
	<path fill="#959595" d="M162.8,27.3c0.2,1.7-0.1,5-0.9,5h-0.5v0.9h0.5c1.8,0,1.7-5,1.7-5h2v5h0.9l0-5.9
		C166.5,27.3,162.8,27.3,162.8,27.3z"/>
	<path fill="#959595" d="M170,29.4h-1.5v-2.1h-0.8v5.9h2.3c0.6,0,2.1-0.2,2.1-1.9C172.1,29.8,170.6,29.4,170,29.4z M169.9,32.4h-1.4
		v-2.2h1.5c0.4,0,1.3,0.1,1.3,1.1C171.3,32.3,170.4,32.4,169.9,32.4z"/>
	<path fill="#959595" d="M177.2,28.9c0-0.5-0.2-1.7-2.1-1.7c-2.3,0-2.2,2.1-2.2,2.1h0.9c0,0-0.1-1.4,1.4-1.3c1,0,1.1,0.7,1.1,1
		c0,0.2,0,0.8-1,0.8h-1.1v0.8h1c0.5,0,1.1,0,1.1,0.9c0,0.3,0,1-1.1,1c-1.7,0-1.5-1.3-1.5-1.3h-0.9c0,0,0,2.1,2.2,2.1
		c1.8,0,2.2-0.8,2.2-1.8c0-1.1-0.3-1.1-0.6-1.4c0.1-0.1,0.2-0.2,0.3-0.3C177.1,29.5,177.2,29.2,177.2,28.9z"/>
	<path fill="#959595" d="M187.7,30c0.1-0.1,0.9-0.3,0.9-1.1c0-1.3-1.5-1.6-2.2-1.6h-2.1v5.9h0.3h0h2.1c0.7,0,2.1-0.5,2.1-1.7
		C188.8,30.5,187.8,30.1,187.7,30z M185,28h1.3c0.5,0,1.5,0.1,1.5,0.8c0,0.8-0.9,0.9-1.4,0.9H185V28z M186.7,32.3H185v-1.8h1.6
		c0.4,0,1.3,0.2,1.3,0.9C187.9,32.2,187.1,32.3,186.7,32.3z"/>
	<path fill="#959595" d="M194,29.1c0-0.6-0.1-1.9-2.1-1.9c-2.3,0-2.2,2-2.2,2h0.8c0,0,0-1.2,1.5-1.2c1.5,0,1.3,1.6,1.3,1.6h-1.1
		c-0.8,0-1.4,0.2-1.9,0.5c-0.5,0.3-0.8,0.8-0.8,1.4c0,0.5,0.2,0.9,0.5,1.2s0.8,0.5,1.3,0.5s1.4-0.3,1.8-0.7c0,0.1,0.3,0.7,0.3,0.7
		l0.8,0l0-0.6C193.9,32.6,194,29.1,194,29.1z M193.2,31.3c-0.2,0.3-0.4,0.6-0.7,0.8c-0.3,0.2-0.7,0.3-1.1,0.3
		c-0.3,0-0.6-0.1-0.8-0.3c-0.2-0.2-0.3-0.4-0.3-0.6c0-0.3,0.1-0.5,0.4-0.7c0.4-0.3,0.9-0.4,1.6-0.4h0.9V31.3z"/>
	<polygon fill="#959595" points="199.5,27.3 194.6,27.3 194.6,28.2 196.6,28.2 196.6,33.2 197.5,33.2 197.5,28.2 199.5,28.2 	"/>
	<path fill="#959595" d="M212.8,27.3c-0.6,0-1.9,0.3-1.9,1.8c0,1.3,0.8,1.6,1.1,1.7l-1.4,2.4h0.9l1.3-2.3h1.3v2.3h0.8v-5.9
		L212.8,27.3z M212.5,30.2c-0.3,0-0.9-0.2-0.9-1s0.6-1.1,1.1-1.1h1.4v2.1H212.5z"/>
	<path fill="#959595" d="M103.7,27.2c-2.2,0-2.5,2.2-2.5,3.1s0.3,2.9,2.5,2.9c2.3,0,2.5-2.3,2.5-2.9S106.4,27.2,103.7,27.2z
		 M103.7,32.4c-1.6,0-1.7-1.4-1.7-2.1c0-0.7,0-2.3,1.8-2.3c1.6,0,1.7,1.4,1.7,2.3S105.2,32.4,103.7,32.4z"/>
	<path fill="#959595" d="M117.1,27.3h-3.3c0.1,3.6-1,4.9-1,4.9h-0.5v2.4h0.8V33h3.7v1.6h0.9v-2.4h-0.6V27.3z M116.3,32.2h-2.6
		c0,0,0.9-2,0.8-4h1.8V32.2z"/>
	<path fill="#959595" d="M120.5,27.2c-2.5,0-2.5,2.4-2.5,3.2c0,0.8,0.2,2.8,2.5,2.8c1.6,0,2.1-1.2,2.1-1.2l-0.6-0.3
		c0,0-0.4,0.8-1.5,0.8c-1.7,0-1.7-2.1-1.7-2.1l3.9,0C122.7,30.4,123.1,27.2,120.5,27.2z M118.9,29.6c0.1-0.4,0.2-1.6,1.6-1.6
		c1.4,0,1.5,1.4,1.5,1.6H118.9z"/>
	<path fill="#959595" d="M128.3,30.2c0-0.9-0.3-3-2.3-3c-0.8,0-1.5,0.5-1.6,0.6v-0.5h-0.9v7.9h0.9v-2.5c0.1,0.1,0.4,0.5,1.6,0.5
		C128.5,33.2,128.3,30.2,128.3,30.2z M126,32.5c-1.2,0-1.4-0.7-1.6-1v-2.4c0.1-0.4,0.5-1.1,1.6-1.1c1.2,0,1.5,1.4,1.5,2.1
		C127.5,30.9,127.3,32.5,126,32.5z"/>
	<path fill="#959595" d="M158.5,27.2c-2.2,0-2.5,2.2-2.5,3.1s0.3,2.9,2.5,2.9c2.3,0,2.5-2.3,2.5-2.9S161.2,27.2,158.5,27.2z
		 M158.5,32.4c-1.6,0-1.7-1.4-1.7-2.1c0-0.7,0-2.3,1.8-2.3c1.6,0,1.7,1.4,1.7,2.3S160,32.4,158.5,32.4z"/>
	<path fill="#959595" d="M180.7,27.2c-2.2,0-2.5,2.2-2.5,3.1s0.3,2.9,2.5,2.9c2.3,0,2.5-2.3,2.5-2.9S183.4,27.2,180.7,27.2z
		 M180.7,32.4c-1.6,0-1.7-1.4-1.7-2.1c0-0.7,0-2.3,1.8-2.3c1.6,0,1.7,1.4,1.7,2.3S182.1,32.4,180.7,32.4z"/>
	<path fill="#959595" d="M201.9,27.2c-2.5,0-2.5,2.4-2.5,3.2c0,0.8,0.2,2.8,2.5,2.8c1.6,0,2.1-1.2,2.1-1.2l-0.6-0.3
		c0,0-0.4,0.8-1.5,0.8c-1.7,0-1.7-2.1-1.7-2.1l3.9,0C204.1,30.4,204.5,27.2,201.9,27.2z M200.3,29.6c0.1-0.4,0.2-1.6,1.6-1.6
		c1.4,0,1.5,1.4,1.5,1.6H200.3z"/>
	<path fill="#959595" d="M205.9,27.3c0.2,1.7-0.1,5-0.9,5h-0.5v0.9h0.5c1.8,0,1.7-5,1.7-5h2v5h0.9l0-5.9
		C209.6,27.3,205.9,27.3,205.9,27.3z"/>
</g>
</svg>
