<?xml version="1.0" encoding="utf-8"?>
<!DOCTYPE svg PUBLIC "-//W3C//DTD SVG 1.1//EN" "http://www.w3.org/Graphics/SVG/1.1/DTD/svg11.dtd">
<svg version="1.1" id="Layer_1" xmlns="http://www.w3.org/2000/svg" xmlns:xlink="http://www.w3.org/1999/xlink" x="0px" y="0px"
	 width="260px" height="40px" viewBox="12 938 260 40" style="enable-background:new 12 938 260 40;" xml:space="preserve">
<g>
	<path fill="#3352AF" d="M19.2,959.3v-17.1h-6.8v-2.7H29v2.7h-6.8v17.1H19.2z"/>
	<path fill="#3352AF" d="M31.6,952.5v-6.1c0-4.5,3.2-7.4,8.3-7.4c5,0,8,2.8,8,7.3v4.1H34.7v2c0,2.7,1.9,4.6,5.2,4.6
		c2.8,0,4.4-1.2,4.8-3.6h3.1c-0.3,4-3.2,6.4-7.9,6.4C34.7,959.8,31.6,957,31.6,952.5z M34.7,947.9h10.1v-1.6c0-2.7-1.8-4.5-5.1-4.5
		c-3.2,0-5.1,1.8-5.1,4.5L34.7,947.9L34.7,947.9z"/>
	<path fill="#3352AF" d="M68,940.9l-6.3,8.4l6.4,8.5v1.5h-2.8l-5.6-7.6l-5.5,7.6h-2.8v-1.5l6.4-8.5l-6.3-8.4v-1.5h2.8l5.4,7.4
		l5.3-7.4h3V940.9z"/>
	<path fill="#EE1111" d="M72.8,959.3v-19.9h16.1v19.9h-3.1v-17.1h-10v17.1H72.8z"/>
	<path fill="#EE1111" d="M94.2,946.4c0-4.4,3-7.4,8.3-7.4s8.2,3,8.2,7.4v6c0,4.4-2.9,7.4-8.2,7.4s-8.3-3-8.3-7.4V946.4z
		 M107.6,952.3v-5.8c0-2.7-1.8-4.7-5.1-4.7c-3.3,0-5.2,1.9-5.2,4.7v5.8c0,2.7,1.9,4.7,5.2,4.7C105.8,957,107.6,955,107.6,952.3z"/>
	<path fill="#EE1111" d="M114,964.3v-7.7h1.8c1.7-1.8,2.5-4.7,2.5-8.8v-8.4h14.3v17.1h3v7.7h-3.1v-5H117v5h-3V964.3z M129.5,956.6
		v-14.4h-8.3v6.1c0,3.2-0.7,6-2,8.3L129.5,956.6L129.5,956.6z"/>
	<path fill="#EE1111" d="M139.5,964.3v-7.7h1.8c1.7-1.8,2.5-4.7,2.5-8.8v-8.4h14.3v17.1h3v7.7H158v-5h-15.5v5h-3V964.3z
		 M155.1,956.6v-14.4h-8.3v6.1c0,3.2-0.7,6-2,8.3L155.1,956.6L155.1,956.6z"/>
	<path fill="#EE1111" d="M164.6,952.5v-6.1c0-4.5,3.2-7.4,8.3-7.4c5,0,8,2.8,8,7.3v4.1h-13.2v2c0,2.7,1.9,4.6,5.2,4.6
		c2.8,0,4.4-1.2,4.8-3.6h3.1c-0.3,4-3.2,6.4-7.9,6.4C167.8,959.8,164.6,957,164.6,952.5z M167.7,947.9h10.1v-1.6
		c0-2.7-1.8-4.5-5.1-4.5c-3.2,0-5.1,1.8-5.1,4.5v1.6H167.7z"/>
	<path fill="#EE1111" d="M202.7,946.3v6.2c0,4.6-2.8,7.3-7.1,7.3c-2.6,0-4.7-1-6.3-2.9v8.6h-3.1v-26h1.9l1.1,2.6
		c1.8-2,4-3.1,6.6-3.1C199.8,939,202.7,941.7,202.7,946.3z M199.6,952.2v-5.7c0-2.8-1.8-4.7-4.4-4.7c-2,0-3.9,1-5.9,3.1v8.9
		c1.9,2.1,3.9,3.1,5.8,3.1C197.7,957,199.6,955.1,199.6,952.2z"/>
	<path fill="#EE1111" d="M206.3,959.3v-1.5l5.7-8.7l-5.4-8.3v-1.5h2.6l5.5,8.5h3.4v-8.5h3.1v8.5h3.4l5.5-8.5h2.6v1.5l-5.4,8.3
		l5.7,8.7v1.5h-2.8l-5.6-8.6h-3.5v8.6H218v-8.6h-3.5l-5.5,8.6H206.3z"/>
	<path fill="#EE1111" d="M237.6,959.3v-19.9h3.1v8.5h3.4l6.4-8.5h2.6v1.5l-6.2,8.3l6.5,8.7v1.5h-2.8l-6.5-8.6h-3.4v8.6L237.6,959.3
		L237.6,959.3z"/>
	<path fill="#EE1111" d="M255.9,954c0-4.1,2.8-6.3,8.2-6.3h5v-2c0-2.4-1.5-3.9-4.6-3.9c-2.9,0-4.6,1.5-4.6,3.7h-3
		c0-3.9,2.6-6.5,7.6-6.5s7.7,2.6,7.7,6.5v13.8h-1.9l-1.2-2.5c-1.4,1.6-3.9,3-6.7,3C258.7,959.8,255.9,957.7,255.9,954z M269.1,954.2
		v-4h-5c-3.4,0-5.1,1.2-5.1,3.5c0,2.2,1.6,3.3,4.1,3.3C265.2,957,267.2,956,269.1,954.2z"/>
</g>
<g>
	<path fill="#969696" d="M13.1,978.2h-0.8v-9.3h0.8v0.6c0.2-0.1,0.3-0.3,0.5-0.4c0.5-0.2,0.9-0.3,1.4-0.3c0.8,0,1.4,0.3,2,1
		c0.4,0.6,0.6,1.5,0.6,2.6c0,1-0.2,1.9-0.6,2.5c-0.4,0.7-1.1,1-1.9,1c-0.5,0-1-0.1-1.4-0.3c-0.2-0.1-0.4-0.2-0.5-0.4V978.2z
		 M13,973.8c0.2,0.4,0.4,0.7,0.7,0.8c0.4,0.2,0.7,0.4,1.3,0.4c0.6,0,1-0.2,1.3-0.7c0.4-0.6,0.5-1.3,0.5-2.2c0-0.8-0.2-1.5-0.5-2
		c-0.4-0.4-0.8-0.7-1.3-0.7c-0.5,0-0.9,0.1-1.3,0.4c-0.3,0.2-0.5,0.6-0.7,1V973.8z"/>
	<path fill="#969696" d="M21.7,975.8c-0.6,0-1.2-0.2-1.6-0.5c-0.3-0.2-0.8-0.7-1.1-1.2c-0.2-0.5-0.4-1.1-0.4-1.7v-0.3
		c0-0.7,0.1-1.2,0.4-1.7c0.2-0.5,0.6-1,1.1-1.2c0.6-0.3,1-0.4,1.4-0.4c0.8,0,1.4,0.3,1.9,0.9c0.5,0.5,0.8,1.2,0.8,2.2v0.5h-4.8v0.1
		c0,0.5,0.1,0.9,0.3,1.3c0.2,0.4,0.5,0.7,0.8,0.9c0.4,0.2,0.7,0.4,1.1,0.4c0.3,0,0.6-0.1,1-0.2c0.2-0.1,0.5-0.3,0.7-0.6l0.2-0.3
		l0.6,0.6l-0.1,0.2C23.5,975.4,22.7,975.8,21.7,975.8z M19.4,971.5h3.9c0-0.3-0.1-0.6-0.3-0.9c-0.2-0.4-0.4-0.6-0.7-0.8l-0.2-0.1
		c-0.2-0.1-0.3-0.2-0.6-0.2c-0.6,0-1,0.2-1.4,0.6C19.8,970.6,19.5,971,19.4,971.5z M23.4,970.3c0,0,0,0.1,0.1,0.1
		c0.1,0.3,0.2,0.6,0.3,0.9C23.7,970.9,23.5,970.6,23.4,970.3z"/>
	<path fill="#969696" d="M27.9,975.8c-0.9,0-1.5-0.3-2.1-1c-0.5-0.6-0.8-1.4-0.8-2.5v-0.2c0-1.1,0.2-1.8,0.8-2.5
		c0.6-0.7,1.2-1,2.1-1c0.7,0,1.3,0.2,1.9,0.7c0.5,0.5,0.8,1.1,0.8,1.8v0.3h-0.8v-0.3c0-0.5-0.1-0.8-0.5-1.2
		c-0.4-0.3-0.8-0.4-1.2-0.4c-0.6,0-1.1,0.3-1.5,0.7c-0.4,0.5-0.5,1.1-0.5,1.9v0.2c0,0.8,0.2,1.5,0.5,1.9c0.4,0.5,0.8,0.7,1.4,0.7
		c0.5,0,1-0.2,1.2-0.4c0.4-0.3,0.5-0.6,0.5-1.1v-0.3h0.8v0.3c0,0.6-0.3,1.2-0.8,1.7C29.2,975.5,28.6,975.8,27.9,975.8z"/>
	<path fill="#969696" d="M32.2,978.3c-0.2,0-0.5,0-0.7-0.2l-0.1-0.1v-0.7h0.3c0.1,0,0.2,0,0.3,0.1c0,0,0.1,0,0.1,0
		c0.2,0,0.5-0.1,0.6-0.2c0.2-0.2,0.4-0.5,0.6-0.8l0.4-0.9L31,969h0.8l2.1,5.1l2.1-5.3H37l-2.7,7.3l0,0l-0.2,0.5l-0.1,0.4
		C33.6,977.9,33,978.3,32.2,978.3z"/>
	<path fill="#969696" d="M38.8,978.2H38v-9.3h0.8v0.6c0.2-0.1,0.3-0.3,0.5-0.4c0.5-0.2,0.9-0.3,1.4-0.3c0.8,0,1.4,0.3,2,1
		c0.4,0.6,0.6,1.5,0.6,2.6c0,1-0.2,1.9-0.6,2.5c-0.4,0.7-1.1,1-1.9,1c-0.5,0-1-0.1-1.4-0.3c-0.2-0.1-0.4-0.2-0.5-0.4V978.2z
		 M38.8,973.8c0.2,0.4,0.4,0.7,0.7,0.8c0.4,0.2,0.7,0.4,1.3,0.4c0.6,0,1-0.2,1.3-0.7c0.3-0.6,0.5-1.3,0.5-2.2c0-0.8-0.2-1.5-0.5-2
		c-0.4-0.4-0.8-0.7-1.3-0.7c-0.5,0-0.9,0.1-1.3,0.4c-0.3,0.2-0.5,0.6-0.7,1V973.8z"/>
	<path fill="#969696" d="M47.1,975.8c-0.9,0-1.5-0.3-2.1-1c-0.5-0.6-0.8-1.4-0.8-2.5v-0.2c0-1.1,0.2-1.8,0.8-2.5
		c0.6-0.7,1.2-1,2.1-1c0.7,0,1.3,0.2,1.9,0.7c0.5,0.5,0.8,1.1,0.8,1.8v0.3H49v-0.3c0-0.5-0.1-0.8-0.5-1.2c-0.4-0.3-0.8-0.4-1.2-0.4
		c-0.6,0-1.1,0.3-1.5,0.7c-0.4,0.5-0.5,1.1-0.5,1.9v0.2c0,0.8,0.2,1.5,0.5,1.9c0.3,0.5,0.7,0.7,1.4,0.7c0.5,0,1-0.2,1.2-0.4
		c0.4-0.3,0.5-0.6,0.5-1.1v-0.3h0.8v0.3c0,0.6-0.3,1.2-0.8,1.7C48.4,975.5,47.8,975.8,47.1,975.8z"/>
	<polygon fill="#969696" points="56.6,975.7 55.9,975.7 55.9,969.7 53.5,969.7 53.5,968.8 59.1,968.8 59.1,969.7 56.6,969.7 	"/>
	<path fill="#969696" d="M62.3,975.8c-0.6,0-1.2-0.2-1.6-0.5c-0.3-0.2-0.8-0.7-1.1-1.2c-0.2-0.5-0.4-1.1-0.4-1.7v-0.3
		c0-0.7,0.1-1.2,0.4-1.7c0.2-0.5,0.6-1,1.1-1.2c0.5-0.4,1.1-0.4,1.4-0.4c0.8,0,1.4,0.3,1.9,0.9c0.5,0.5,0.8,1.2,0.8,2.2v0.5H60v0.1
		c0,0.5,0.1,0.9,0.3,1.3c0.2,0.4,0.5,0.7,0.8,0.9c0.6,0.5,1.2,0.5,2.1,0.2c0.2-0.1,0.5-0.3,0.7-0.6l0.2-0.3l0.5,0.6l-0.1,0.2
		C64.1,975.4,63.3,975.8,62.3,975.8z M60.1,971.5h3.9c0-0.3-0.1-0.6-0.3-0.9c-0.2-0.4-0.4-0.6-0.7-0.8l-0.1,0
		c-0.2-0.2-0.4-0.2-0.7-0.2c-0.6,0-1,0.2-1.4,0.6C60.5,970.6,60.2,971,60.1,971.5z"/>
	<polygon fill="#969696" points="71.3,975.8 70.3,975.8 68.2,972.9 66.1,975.8 65.1,975.8 67.7,972.2 65.3,968.8 66.3,968.8 
		68.2,971.5 70.1,968.8 71.1,968.8 68.7,972.2 	"/>
	<polygon fill="#969696" points="77.1,975.7 76.4,975.7 76.4,972.5 73,972.5 73,975.7 72.1,975.7 72.1,968.8 73,968.8 73,971.7 
		76.4,971.7 76.4,968.8 77.1,968.8 	"/>
	<polygon fill="#969696" points="84,975.8 83.3,975.8 83.3,970.5 79.7,975.8 79,975.8 79,968.8 79.9,968.8 79.9,974.1 83.4,968.8 
		84,968.8 	"/>
	<path fill="#969696" d="M90.5,975.7h-0.8v-3c-0.2,0.1-0.4,0.1-0.7,0.2c-0.4,0.1-0.7,0.1-1,0.1c-0.8,0-1.3-0.1-1.5-0.2l-0.1,0
		c-0.3-0.2-0.7-0.4-0.8-0.8c-0.2-0.4-0.2-0.9-0.2-1.5v-1.7h0.8v1.7c0,0.5,0.1,0.9,0.2,1.1c0.1,0.2,0.2,0.4,0.4,0.4
		c0.3,0.1,0.6,0.2,1.2,0.2c0.2,0,0.4-0.1,0.7-0.1l0.2-0.1c0.3-0.1,0.5-0.1,0.6-0.2v-3.1h0.8V975.7z"/>
	<path fill="#969696" d="M94.9,975.8c-0.6,0-1.2-0.2-1.6-0.5c-0.3-0.2-0.8-0.7-1.1-1.2c-0.2-0.5-0.4-1.1-0.4-1.7v-0.3
		c0-0.7,0.1-1.2,0.4-1.7c0.2-0.5,0.6-1,1.1-1.2c0.5-0.4,1.1-0.4,1.4-0.4c0.8,0,1.4,0.3,1.9,0.9c0.5,0.5,0.8,1.2,0.8,2.2v0.5h-4.8
		v0.1c0,0.5,0.1,0.9,0.3,1.3c0.2,0.4,0.5,0.7,0.8,0.9c0.4,0.2,0.7,0.4,1.1,0.4c0.3,0,0.6-0.1,1-0.2c0.2-0.1,0.5-0.3,0.7-0.6l0.2-0.3
		l0.5,0.5l-0.1,0.2C96.8,975.3,96,975.8,94.9,975.8z M92.7,971.5h3.9c0-0.3-0.1-0.6-0.3-0.9c-0.2-0.4-0.4-0.6-0.7-0.8l-0.1,0l0-0.1
		c0,0-0.3-0.2-0.7-0.2c-0.6,0-1,0.2-1.4,0.6C93.1,970.6,92.8,971,92.7,971.5z"/>
	<path fill="#969696" d="M101.1,975.8c-0.9,0-1.5-0.3-2.1-1c-0.5-0.6-0.8-1.4-0.8-2.5v-0.2c0-1.1,0.2-1.8,0.8-2.5
		c0.6-0.7,1.2-1,2.1-1c0.7,0,1.3,0.2,1.9,0.7c0.5,0.5,0.8,1.1,0.8,1.8v0.3H103v-0.3c0-0.5-0.1-0.8-0.5-1.2c-0.4-0.3-0.8-0.4-1.2-0.4
		c-0.6,0-1.1,0.3-1.5,0.7c-0.4,0.5-0.5,1.1-0.5,1.9v0.2c0,0.8,0.2,1.5,0.5,1.9c0.4,0.5,0.8,0.7,1.4,0.7c0.5,0,1-0.2,1.2-0.4
		c0.4-0.3,0.5-0.6,0.5-1.1v-0.3h0.8v0.3c0,0.6-0.3,1.2-0.8,1.7C102.4,975.5,101.8,975.8,101.1,975.8z"/>
	<polygon fill="#969696" points="105.9,975.7 105,975.7 105,968.8 105.9,968.8 105.9,971.7 106.7,971.7 109.2,968.8 110.3,968.8 
		107.4,972.1 110.8,975.5 109.6,975.5 106.7,972.5 105.9,972.5 	"/>
	<path fill="#969696" d="M113.9,975.8c-0.6,0-1.2-0.2-1.6-0.5c-0.4-0.3-0.9-0.6-1.1-1.2c-0.2-0.5-0.4-1-0.4-1.7v-0.1h-0.1v-0.3
		c0-0.7,0.1-1.3,0.4-1.7c0.2-0.5,0.6-1,1.1-1.2c0.4-0.3,0.9-0.4,1.5-0.4s1.2,0.2,1.6,0.5c0.4,0.3,0.9,0.6,1.1,1.2
		c0.2,0.5,0.4,1,0.4,1.7v0.3c0,0.7-0.1,1.3-0.3,1.7c-0.2,0.5-0.6,1-1.1,1.2C115.1,975.6,114.5,975.8,113.9,975.8z M113.8,969.7
		c-0.6,0-1.1,0.2-1.6,0.7c-0.4,0.5-0.6,1.1-0.6,1.9v0.1c0,0.5,0.1,0.9,0.3,1.4c0.2,0.4,0.5,0.7,0.8,0.9c0.4,0.2,0.7,0.4,1.2,0.4
		c0.6,0,1.1-0.2,1.6-0.7c0.4-0.4,0.6-1,0.6-1.9v-0.2c0-0.5-0.1-0.9-0.3-1.3c-0.2-0.3-0.4-0.7-0.8-0.9
		C114.6,969.8,114.2,969.7,113.8,969.7z"/>
	<path fill="#969696" d="M123.1,975.8h-0.8v-5.2l-3.5,5.2h-0.7v-6.9h0.8v5.2l3.5-5.2h0.7V975.8z M120.7,968.5
		c-0.6,0-1.1-0.2-1.4-0.5c-0.3-0.3-0.5-0.7-0.5-1.3v-0.3h0.8v0.3c0,0.3,0.1,0.5,0.2,0.6c0.1,0.1,0.5,0.2,0.8,0.2
		c0.3,0,0.6-0.1,0.9-0.3c0.1-0.1,0.2-0.3,0.2-0.6v-0.3h0.8v0.3c0,0.5-0.2,1-0.5,1.3C121.8,968.4,121.3,968.5,120.7,968.5z"/>
	<polygon fill="#969696" points="133.3,975.7 132.5,975.7 132.5,969.7 129,969.7 129,975.7 128.3,975.7 128.3,968.8 133.3,968.8 	
		"/>
	<path fill="#969696" d="M137.7,975.8c-0.6,0-1.2-0.2-1.6-0.5c-0.4-0.3-0.9-0.6-1.1-1.2c-0.2-0.5-0.4-1-0.4-1.7v-0.1h-0.1v-0.3
		c0-0.7,0.1-1.3,0.4-1.7c0.2-0.5,0.6-1,1.1-1.2c0.4-0.3,0.9-0.4,1.5-0.4s1.2,0.2,1.6,0.5c0.4,0.3,0.9,0.6,1.1,1.2
		c0.2,0.5,0.4,1,0.4,1.7v0.3c0,0.7-0.1,1.3-0.3,1.7c-0.2,0.5-0.6,1-1.1,1.2C138.9,975.6,138.3,975.8,137.7,975.8z M137.6,969.7
		c-0.6,0-1.1,0.2-1.6,0.7c-0.4,0.5-0.6,1.1-0.6,1.9v0.1c0,0.5,0.1,0.9,0.3,1.4c0.2,0.4,0.5,0.7,0.8,0.9c0.4,0.2,0.7,0.4,1.2,0.4
		c0.6,0,1.1-0.2,1.6-0.7c0.4-0.4,0.6-1,0.6-1.9v-0.2c0-0.5-0.1-0.9-0.3-1.3c-0.2-0.4-0.5-0.7-0.8-0.9
		C138.4,969.8,138,969.7,137.6,969.7z"/>
	<path fill="#969696" d="M147,977.5h-0.8v-1.9h-4.6v1.9h-0.8v-2.7h0.6l0.1-0.2c0.6-0.7,0.9-1.8,1-3.3l0.1-2.5h3.9v6h0.5V977.5z
		 M142.4,974.8h3.4v-5.2h-2.3l-0.1,1.9C143.2,972.9,142.8,974,142.4,974.8z"/>
	<path fill="#969696" d="M153.8,977.5H153v-1.9h-4.6v1.9h-0.7v-2.7h0.5l0.1-0.2c0.6-0.7,0.9-1.8,1-3.3l0.1-2.5h3.9v6h0.5V977.5z
		 M149.3,974.8h3.3v-5.2h-2.3l-0.1,1.9C150.2,972.9,149.8,974,149.3,974.8z"/>
	<path fill="#969696" d="M157.8,975.8c-0.6,0-1.2-0.2-1.5-0.5c-0.3-0.2-0.8-0.7-1.1-1.2c-0.2-0.5-0.4-1.1-0.4-1.7v-0.3
		c0-0.7,0.1-1.2,0.4-1.7c0.2-0.5,0.6-0.9,1.1-1.2c0.5-0.4,1.1-0.4,1.4-0.4c0.8,0,1.4,0.3,1.9,0.9c0.5,0.5,0.8,1.2,0.8,2.2v0.5h-4.8
		v0.1c0,0.5,0.1,0.9,0.3,1.3c0.2,0.3,0.4,0.7,0.8,0.9c0.6,0.5,1.2,0.5,2.1,0.2c0.2-0.1,0.5-0.3,0.7-0.6l0.2-0.3l0.6,0.6l-0.1,0.2
		C159.6,975.4,158.8,975.8,157.8,975.8z M155.5,971.5h3.9c0-0.3-0.1-0.6-0.3-0.9c-0.2-0.4-0.4-0.6-0.7-0.8l-0.2-0.1
		c-0.2-0.1-0.3-0.2-0.6-0.2c-0.6,0-1,0.2-1.4,0.6C155.9,970.6,155.6,971,155.5,971.5z M159.5,970.3c0,0,0,0.1,0.1,0.1
		c0.1,0.3,0.2,0.6,0.3,0.9C159.8,970.9,159.6,970.6,159.5,970.3z"/>
	<path fill="#969696" d="M162.5,978.2h-0.8v-9.3h0.8v0.6c0.2-0.1,0.3-0.3,0.5-0.4c0.5-0.2,0.9-0.3,1.4-0.3c0.8,0,1.4,0.3,2,1
		c0.4,0.6,0.6,1.5,0.6,2.6c0,1-0.2,1.9-0.6,2.5c-0.4,0.7-1.1,1-1.9,1c-0.5,0-1-0.1-1.4-0.3c-0.2-0.1-0.4-0.2-0.5-0.4V978.2z
		 M162.5,973.8c0.2,0.4,0.4,0.7,0.7,0.8c0.4,0.2,0.8,0.4,1.3,0.4c0.6,0,1-0.2,1.3-0.7c0.3-0.6,0.5-1.3,0.5-2.2c0-0.8-0.2-1.5-0.5-2
		c-0.4-0.4-0.8-0.7-1.3-0.7c-0.5,0-0.9,0.1-1.3,0.4c-0.3,0.2-0.5,0.6-0.7,1V973.8z"/>
	<polygon fill="#969696" points="177.2,975.7 176.1,975.7 173.1,972.5 172.5,972.5 172.5,975.7 171.8,975.7 171.8,972.5 
		171.2,972.5 168.3,975.7 167.2,975.7 170.5,972.2 167.7,968.8 168.7,968.8 171.2,971.8 171.8,971.8 171.8,968.8 172.7,968.8 
		172.7,971.8 173.3,971.8 175.8,968.8 176.8,968.8 173.9,972.2 	"/>
	<polygon fill="#969696" points="178.7,975.7 177.8,975.7 177.8,968.8 178.7,968.8 178.7,971.7 179.5,971.7 182,968.8 183.1,968.8 
		180.2,972.1 183.6,975.5 182.4,975.5 179.5,972.5 178.7,972.5 	"/>
	<polygon fill="#969696" points="189.2,975.8 188.3,975.8 188.3,970.5 184.8,975.8 184.2,975.8 184.2,968.8 185,968.8 185,974.1 
		188.5,968.8 189.2,968.8 	"/>
	<polygon fill="#969696" points="199.3,975.7 198.5,975.7 198.5,969.7 195,969.7 195,975.7 194.3,975.7 194.3,968.8 199.3,968.8 	
		"/>
	<path fill="#969696" d="M203.7,975.8c-0.6,0-1.2-0.2-1.6-0.5c-0.4-0.3-0.9-0.6-1.1-1.2c-0.2-0.5-0.4-1-0.4-1.7v-0.1h-0.1v-0.3
		c0-0.7,0.1-1.3,0.4-1.7c0.2-0.5,0.6-1,1.1-1.2c0.4-0.3,0.9-0.4,1.5-0.4s1.2,0.2,1.6,0.5c0.4,0.3,0.9,0.6,1.1,1.2
		c0.2,0.5,0.4,1,0.4,1.7v0.3c0,0.7-0.1,1.3-0.3,1.7c-0.2,0.5-0.6,1-1.1,1.2C204.9,975.6,204.3,975.8,203.7,975.8z M203.6,969.7
		c-0.6,0-1.1,0.2-1.6,0.7c-0.4,0.5-0.6,1.1-0.6,1.9v0.1c0,0.5,0.1,0.9,0.3,1.4c0.2,0.4,0.5,0.7,0.8,0.9c0.4,0.2,0.7,0.4,1.2,0.4
		c0.6,0,1.1-0.2,1.6-0.7c0.4-0.4,0.6-1,0.6-1.9v-0.2c0-0.5-0.1-0.9-0.3-1.3c-0.2-0.4-0.5-0.7-0.8-0.9
		C204.4,969.8,204,969.7,203.6,969.7z"/>
	<path fill="#969696" d="M207.5,975.8H207V975h0.5c0.3,0,0.5-0.1,0.7-0.5c0.2-0.4,0.3-1.2,0.4-1.9l0.1-3.6h4.1v6.7H212v-6h-2.5
		l-0.1,2.8c-0.1,1.1-0.2,2-0.5,2.5C208.7,975.6,208.2,975.8,207.5,975.8z"/>
	<path fill="#969696" d="M217.4,975.7h-2.7v-6.9h0.8v2.5h1.9c0.7,0,1.3,0.2,1.7,0.5c0.5,0.5,0.7,1,0.7,1.6c0,0.7-0.2,1.3-0.7,1.6
		C218.7,975.4,218.2,975.5,217.4,975.7L217.4,975.7z M215.5,974.8h1.8c0.7,0,1.1-0.3,1.3-0.4c0.2-0.3,0.4-0.6,0.4-1s-0.1-0.7-0.4-1
		c-0.3-0.3-0.7-0.4-1.2-0.4h-1.8V974.8z"/>
	<path fill="#969696" d="M223.7,975.8c-0.4,0-0.9-0.1-1.3-0.2c-0.4-0.2-0.8-0.4-1-0.8c-0.2-0.4-0.3-0.7-0.3-1.1v-0.3h0.8v0.3
		c0,0.3,0.2,0.7,0.5,0.9c0.4,0.3,0.9,0.5,1.4,0.5c0.7,0,1.1-0.1,1.3-0.3c0.3-0.3,0.4-0.5,0.4-0.9c0-0.4-0.2-0.7-0.4-0.9
		c-0.1-0.1-0.5-0.2-1.3-0.2h-1.2v-0.8h1.3c1.3,0,1.5-0.6,1.5-1c0-0.4-0.2-0.7-0.4-0.9c-0.2-0.2-0.6-0.3-1.2-0.3
		c-0.5,0-0.9,0.1-1.2,0.3c-0.4,0.3-0.5,0.5-0.5,0.8v0.3H221v-0.3c0-0.6,0.2-1.1,0.8-1.5c0.5-0.3,1.1-0.6,1.8-0.6
		c0.7,0,1.4,0.2,1.9,0.5c0.5,0.4,0.7,0.8,0.7,1.5c0,0.3-0.1,0.7-0.3,1c-0.1,0.2-0.3,0.3-0.5,0.4c0.6,0.3,0.9,0.8,0.9,1.6
		c0,0.7-0.2,1.1-0.7,1.5C225.1,975.6,224.4,975.8,223.7,975.8z"/>
	<path fill="#969696" d="M230.3,975.8c-0.6,0-1.2-0.2-1.5-0.5c-0.4-0.3-0.9-0.6-1.1-1.2c-0.2-0.5-0.4-1-0.4-1.7v-0.1h-0.1v-0.3
		c0-0.7,0.1-1.3,0.4-1.7c0.2-0.5,0.6-1,1.1-1.2c0.4-0.3,0.9-0.4,1.5-0.4s1.2,0.2,1.5,0.5c0.4,0.3,0.9,0.6,1.1,1.2
		c0.2,0.5,0.4,1,0.4,1.7v0.3c0,0.7-0.1,1.3-0.3,1.7c-0.2,0.5-0.6,1-1.1,1.2C231.5,975.6,230.9,975.8,230.3,975.8z M230.3,969.7
		c-0.6,0-1.1,0.2-1.6,0.7c-0.4,0.5-0.6,1.1-0.6,1.9v0.1c0,0.5,0.1,0.9,0.3,1.4c0.1,0.3,0.4,0.7,0.8,0.9c0.4,0.2,0.8,0.4,1.2,0.4
		c0.6,0,1.1-0.2,1.6-0.7c0.4-0.4,0.6-1,0.6-1.9v-0.2c0-0.5-0.1-0.9-0.3-1.3c-0.2-0.3-0.4-0.7-0.8-0.9
		C231.1,969.8,230.7,969.7,230.3,969.7z"/>
	<path fill="#969696" d="M237.5,975.5h-2.6v-0.1h-0.3v-6.7h2.4c0.9,0,1.5,0.1,2,0.5c0.5,0.3,0.7,0.8,0.7,1.4c0,0.5-0.1,0.8-0.4,1.1
		c-0.1,0.1-0.2,0.2-0.3,0.3c0.2,0.1,0.3,0.2,0.5,0.4c0.3,0.3,0.5,0.7,0.5,1.2c0,0.6-0.3,1.2-0.7,1.5
		C238.9,975.4,238.2,975.5,237.5,975.5z M235.5,974.8h2c0.6,0,1-0.1,1.2-0.3c0.3-0.2,0.4-0.5,0.4-0.8c0-0.3-0.1-0.5-0.4-0.8
		c-0.2-0.2-0.6-0.3-1.2-0.3h-2V974.8z M235.5,971.8h1.7c0.6,0,1-0.1,1.4-0.3c0.2-0.1,0.4-0.5,0.4-0.8c0-0.4-0.1-0.6-0.4-0.8
		c-0.3-0.2-0.8-0.3-1.4-0.3h-1.7V971.8z M237.7,969.3c0.2,0,0.4,0.1,0.6,0.1C238.2,969.3,237.9,969.3,237.7,969.3z M235.2,969.3h1.9
		H235.2z"/>
	<path fill="#969696" d="M246.5,975.8h-1v-0.3c-0.1-0.2-0.1-0.4-0.1-0.6c-0.2,0.2-0.4,0.4-0.6,0.5c-0.4,0.2-1,0.3-1.6,0.3
		c-0.6,0-1.2-0.2-1.6-0.6c-0.5-0.4-0.6-0.9-0.6-1.4c0-0.7,0.3-1.3,0.9-1.6c0.6-0.5,1.4-0.5,2.2-0.5h1.3V971c0-0.4-0.1-0.7-0.4-1
		c-0.2-0.2-0.6-0.3-1.2-0.3c-0.6,0-1,0.1-1.3,0.3c-0.3,0.2-0.5,0.6-0.5,0.9v0.3h-0.8v-0.3c0-0.7,0.3-1.2,0.8-1.5
		c0.5-0.4,1.1-0.5,1.8-0.5c0.7,0,1.3,0.2,1.7,0.5c0.5,0.3,0.7,0.9,0.7,1.6v3c0,0.7,0.1,1.2,0.2,1.3l0,0.1V975.8z M244.2,972.5
		c-0.8,0-1.5,0.2-2,0.5c-0.3,0.2-0.5,0.5-0.5,0.9c0,0.3,0.1,0.5,0.4,0.8c0.2,0.2,0.5,0.3,1,0.3c0.6,0,1-0.1,1.4-0.4
		c0.4-0.3,0.7-0.5,0.9-0.9v-1.2H244.2z"/>
	<polygon fill="#969696" points="250.3,975.7 249.5,975.7 249.5,969.7 247.2,969.7 247.2,968.8 252.8,968.8 252.8,969.7 
		250.3,969.7 	"/>
	<path fill="#969696" d="M256,975.8c-0.6,0-1.2-0.2-1.6-0.5c-0.3-0.2-0.8-0.7-1.1-1.2c-0.2-0.5-0.4-1.1-0.4-1.7v-0.3
		c0-0.7,0.1-1.2,0.4-1.7c0.2-0.5,0.6-0.9,1.1-1.2c0.5-0.4,1.1-0.4,1.4-0.4c0.8,0,1.4,0.3,1.9,0.9c0.5,0.5,0.8,1.2,0.8,2.2v0.5h-4.8
		v0.1c0,0.5,0.1,0.9,0.3,1.3c0.2,0.3,0.4,0.7,0.8,0.9c0.4,0.2,0.7,0.4,1.1,0.4c0.3,0,0.7-0.1,1-0.2c0.2-0.1,0.5-0.3,0.7-0.6l0.2-0.3
		l0.6,0.6l-0.1,0.2C257.8,975.4,257,975.8,256,975.8z M253.7,971.5h3.9c0-0.3-0.1-0.6-0.3-0.9c-0.2-0.4-0.4-0.6-0.7-0.8l-0.1,0
		l0-0.1c0,0-0.3-0.2-0.7-0.2c-0.6,0-1,0.2-1.4,0.6C254.1,970.6,253.8,971,253.7,971.5z M257.7,970.3c0,0,0,0.1,0.1,0.1
		c0.1,0.3,0.2,0.6,0.3,0.9C258,970.9,257.8,970.6,257.7,970.3z"/>
	<path fill="#969696" d="M259.5,975.8H259V975h0.5c0.3,0,0.5-0.1,0.7-0.5c0.2-0.4,0.3-1.2,0.4-1.9l0.1-3.6h4.1v6.7H264v-6h-2.5
		l-0.1,2.8c-0.1,1.1-0.2,2-0.5,2.5C260.7,975.6,260.2,975.8,259.5,975.8z"/>
	<path fill="#969696" d="M271.5,975.8h-0.8V973h-1.9l-1.6,2.7h-1l1.7-2.8c-0.4-0.1-0.7-0.4-0.9-0.6c-0.3-0.3-0.5-0.8-0.5-1.4
		c0-0.7,0.2-1.1,0.7-1.5c0.5-0.4,1-0.5,1.6-0.5h2.6V975.8z M268.9,969.5c-0.6,0-0.9,0.1-1.1,0.3c-0.3,0.4-0.4,0.7-0.4,1
		c0,0.4,0.1,0.7,0.3,0.9c0.2,0.2,0.5,0.3,0.9,0.3h2.1v-2.6H268.9z"/>
</g>
</svg>
